%
M48
M72
T01C0.0120
T02C0.0150
T03C0.0200
T04C0.0256
T05C0.0315
T06C0.0400
%
T01
X8425Y6343
X9737Y6497
X9275Y7205
X9775Y7543
X8775Y7593
X10775Y8043
X11925Y7793
X12275Y7493
X12875Y8093
X12875Y8593
X12025Y8593
X12125Y9093
X10275Y8943
X9825Y8943
X9275Y8143
X8025Y8243
X7475Y9043
X7175Y8793
X6825Y8993
X6475Y8343
X7525Y9543
X6825Y10593
X6275Y10893
X5925Y11193
X6091Y11493
X6925Y12093
X5875Y12543
X6075Y12793
X6825Y13473
X7525Y12793
X8625Y12778
X9275Y12193
X9179Y11093
X10125Y10593
X10475Y10993
X11275Y10393
X12006Y10743
X12225Y10366
X14075Y10443
X14299Y9693
X14775Y10993
X15275Y10943
X15775Y11043
X16875Y11243
X18419Y10852
X18775Y10623
X19175Y10743
X20675Y10693
X21525Y10843
X20275Y9943
X19625Y9193
X19775Y8893
X19925Y8593
X20625Y8693
X21153Y8491
X21525Y8543
X21525Y9243
X19275Y9643
X18575Y9643
X18225Y9643
X18475Y8543
X17975Y8516
X17525Y8243
X16875Y8243
X16775Y7493
X14552Y8343
X14375Y7593
X13152Y7143
X5721Y9747
X12775Y11643
X13575Y11293
X14275Y11393
X9737Y14697
X8425Y14543
X9275Y15405
X9775Y15743
X8775Y15793
X9275Y16343
X9825Y17143
X10275Y17143
X12025Y16793
X12125Y17293
X12875Y16793
X12875Y16293
X11925Y15993
X12275Y15693
X13152Y15343
X14375Y15793
X14552Y16543
X16875Y16443
X17525Y16443
X17975Y16716
X18475Y16743
X19775Y17093
X19925Y16793
X19625Y17393
X19275Y17843
X18575Y17843
X18225Y17843
X18775Y18823
X19175Y18943
X18419Y19052
X20675Y18893
X21525Y19043
X20275Y18143
X21525Y17443
X20625Y16893
X21153Y16691
X21525Y16743
X24821Y17947
X25925Y18793
X25375Y19093
X25025Y19393
X25191Y19693
X26025Y20293
X24975Y20743
X25175Y20993
X25925Y21673
X26625Y20993
X27725Y20978
X28375Y20393
X28279Y19293
X29225Y18793
X29575Y19193
X30375Y18593
X31106Y18943
X31325Y18566
X31225Y17293
X31125Y16793
X31975Y16793
X31975Y16293
X31025Y15993
X31375Y15693
X32252Y15343
X33475Y15793
X33652Y16543
X35975Y16443
X36625Y16443
X37075Y16716
X37575Y16743
X38875Y17093
X39025Y16793
X38725Y17393
X38375Y17843
X37675Y17843
X37325Y17843
X37875Y18823
X38275Y18943
X37519Y19052
X35975Y19443
X34875Y19243
X34375Y19143
X33875Y19193
X33375Y19593
X32675Y19493
X31875Y19843
X33175Y18643
X33399Y17893
X29375Y17143
X28925Y17143
X28375Y16343
X27875Y15793
X28375Y15405
X28875Y15743
X29875Y16243
X27125Y16443
X26575Y17243
X26275Y16993
X25925Y17193
X25575Y16543
X26625Y17743
X27525Y14543
X28837Y14697
X25925Y13473
X26625Y12793
X27725Y12778
X28375Y12193
X26025Y12093
X25191Y11493
X25025Y11193
X25375Y10893
X25925Y10593
X24821Y9747
X26625Y9543
X26575Y9043
X26275Y8793
X25925Y8993
X25575Y8343
X27125Y8243
X28375Y8143
X28925Y8943
X29375Y8943
X31125Y8593
X31225Y9093
X31975Y8593
X31975Y8093
X31375Y7493
X31025Y7793
X29875Y8043
X28875Y7543
X28375Y7205
X27875Y7593
X27525Y6343
X28837Y6497
X32252Y7143
X33475Y7593
X33652Y8343
X35975Y8243
X36625Y8243
X37075Y8516
X37575Y8543
X38875Y8893
X39025Y8593
X39725Y8693
X40253Y8491
X40625Y8543
X40625Y9243
X39375Y9943
X38725Y9193
X38375Y9643
X37675Y9643
X37325Y9643
X37875Y10623
X38275Y10743
X37519Y10852
X35975Y11243
X34875Y11043
X34375Y10943
X33875Y10993
X33375Y11393
X32675Y11293
X31875Y11643
X31106Y10743
X31325Y10366
X30375Y10393
X29575Y10993
X29225Y10593
X28279Y11093
X24975Y12543
X25175Y12793
X33175Y10443
X33399Y9693
X35875Y7493
X39775Y10693
X40625Y10843
X43921Y9747
X45025Y10593
X44475Y10893
X44125Y11193
X44291Y11493
X45125Y12093
X44075Y12543
X44275Y12793
X45025Y13473
X45725Y12793
X46825Y12778
X47475Y12193
X50975Y11643
X51775Y11293
X52475Y11393
X52975Y10993
X53475Y10943
X53975Y11043
X55075Y11243
X56619Y10852
X56975Y10623
X57375Y10743
X58875Y10693
X59725Y10843
X58475Y9943
X57825Y9193
X57975Y8893
X58125Y8593
X58825Y8693
X59353Y8491
X59725Y8543
X59725Y9243
X57475Y9643
X56775Y9643
X56425Y9643
X56675Y8543
X56175Y8516
X55725Y8243
X55075Y8243
X54975Y7493
X52752Y8343
X52575Y7593
X51352Y7143
X50475Y7493
X50125Y7793
X50225Y8593
X50325Y9093
X51075Y8593
X51075Y8093
X48975Y8043
X47975Y7543
X47475Y7205
X46975Y7593
X47475Y8143
X48025Y8943
X48475Y8943
X46225Y8243
X45675Y9043
X45375Y8793
X45025Y8993
X44675Y8343
X45725Y9543
X48325Y10593
X48675Y10993
X49475Y10393
X50206Y10743
X50425Y10366
X52275Y10443
X52499Y9693
X47379Y11093
X46625Y14543
X47937Y14697
X47475Y15405
X47975Y15743
X46975Y15793
X47475Y16343
X48025Y17143
X48475Y17143
X48975Y16243
X50125Y15993
X50475Y15693
X51352Y15343
X52575Y15793
X52752Y16543
X51075Y16293
X51075Y16793
X50225Y16793
X50325Y17293
X50425Y18566
X50206Y18943
X49475Y18593
X48675Y19193
X48325Y18793
X47379Y19293
X45025Y18793
X44475Y19093
X44125Y19393
X44291Y19693
X45125Y20293
X44075Y20743
X44275Y20993
X45025Y21673
X45725Y20993
X46825Y20978
X47475Y20393
X50975Y19843
X51775Y19493
X52475Y19593
X52975Y19193
X53475Y19143
X53975Y19243
X55075Y19443
X56619Y19052
X56975Y18823
X57375Y18943
X58875Y18893
X59725Y19043
X58475Y18143
X57825Y17393
X57975Y17093
X58125Y16793
X58825Y16893
X59353Y16691
X59725Y16743
X59725Y17443
X57475Y17843
X56775Y17843
X56425Y17843
X56675Y16743
X56175Y16716
X55725Y16443
X55075Y16443
X54975Y15693
X52499Y17893
X52275Y18643
X46225Y16443
X45675Y17243
X45375Y16993
X45025Y17193
X44675Y16543
X45725Y17743
X43921Y17947
X40625Y17443
X39725Y16893
X40253Y16691
X40625Y16743
X39375Y18143
X39775Y18893
X40625Y19043
X35875Y15693
X27525Y22743
X28837Y22897
X28375Y23605
X28875Y23943
X28375Y24543
X27875Y23993
X27125Y24643
X26275Y25193
X26575Y25443
X26625Y25943
X24821Y26147
X25375Y27293
X25025Y27593
X25191Y27893
X25925Y26993
X28279Y27493
X29225Y26993
X29575Y27393
X30375Y26793
X31106Y27143
X31325Y26766
X31225Y25493
X31125Y24993
X31975Y24993
X31975Y24493
X31375Y23893
X31025Y24193
X29875Y24443
X29375Y25343
X28925Y25343
X25925Y25393
X25575Y24743
X21525Y24943
X21153Y24891
X20625Y25093
X19925Y24993
X19775Y25293
X19625Y25593
X19275Y26043
X18575Y26043
X18225Y26043
X18775Y27023
X19175Y27143
X18419Y27252
X20675Y27093
X21525Y27243
X20275Y26343
X21525Y25643
X18475Y24943
X17975Y24916
X17525Y24643
X16875Y24643
X16775Y23893
X14552Y24743
X14375Y23993
X13152Y23543
X12275Y23893
X11925Y24193
X12875Y24493
X12875Y24993
X12025Y24993
X12125Y25493
X10275Y25343
X9825Y25343
X9275Y24543
X8775Y23993
X9275Y23605
X9775Y23943
X10775Y24443
X8025Y24643
X7175Y25193
X7475Y25443
X7525Y25943
X6825Y25393
X6475Y24743
X5721Y26147
X6275Y27293
X5925Y27593
X6091Y27893
X6825Y26993
X9179Y27493
X10125Y26993
X10475Y27393
X11275Y26793
X12006Y27143
X12225Y26766
X14075Y26843
X14299Y26093
X14775Y27393
X15275Y27343
X15775Y27443
X16875Y27643
X14275Y27793
X13575Y27693
X12775Y28043
X9275Y28593
X8625Y29178
X7525Y29193
X6925Y28493
X6075Y29193
X5875Y28943
X6825Y29873
X8425Y30943
X9737Y31097
X9275Y31805
X9775Y32143
X9275Y32743
X8775Y32193
X8025Y32843
X7175Y33393
X7475Y33643
X7525Y34143
X6825Y33593
X5721Y34347
X6275Y35493
X5925Y35793
X6091Y36093
X6925Y36693
X7525Y37393
X6825Y38073
X6075Y37393
X5875Y37143
X8625Y37378
X9275Y36793
X9179Y35693
X10125Y35193
X10475Y35593
X12006Y35343
X12225Y34966
X11275Y34993
X12125Y33693
X12025Y33193
X12875Y33193
X12875Y32693
X12275Y32093
X11925Y32393
X10775Y32643
X10275Y33543
X9825Y33543
X6475Y32943
X6825Y35193
X12775Y36243
X13575Y35893
X14275Y35993
X14775Y35593
X15275Y35543
X15775Y35643
X16875Y35843
X18419Y35452
X18775Y35223
X19175Y35343
X20275Y34543
X20675Y35293
X21525Y35443
X19275Y34243
X19625Y33793
X19775Y33493
X19925Y33193
X20625Y33293
X21153Y33091
X21525Y33143
X21525Y33843
X18575Y34243
X18225Y34243
X18475Y33143
X17975Y33116
X17525Y32843
X16875Y32843
X16775Y32093
X14552Y32943
X14375Y32193
X13152Y31743
X14299Y34293
X14075Y35043
X24821Y34347
X25925Y33593
X26275Y33393
X26575Y33643
X26625Y34143
X25925Y35193
X25375Y35493
X25025Y35793
X25191Y36093
X26025Y36693
X26625Y37393
X25925Y38073
X25175Y37393
X24975Y37143
X27725Y37378
X28375Y36793
X28279Y35693
X29225Y35193
X29575Y35593
X31106Y35343
X31325Y34966
X30375Y34993
X31225Y33693
X31125Y33193
X31975Y33193
X31975Y32693
X31375Y32093
X31025Y32393
X29875Y32643
X28875Y32143
X28375Y31805
X27875Y32193
X28375Y32743
X27125Y32843
X25575Y32943
X28925Y33543
X29375Y33543
X33175Y35043
X33399Y34293
X34375Y35543
X33875Y35593
X33375Y35993
X32675Y35893
X31875Y36243
X34875Y35643
X35975Y35843
X37519Y35452
X37875Y35223
X38275Y35343
X39375Y34543
X39775Y35293
X40625Y35443
X38375Y34243
X38725Y33793
X38875Y33493
X39025Y33193
X39725Y33293
X40253Y33091
X40625Y33143
X40625Y33843
X37675Y34243
X37325Y34243
X37575Y33143
X37075Y33116
X36625Y32843
X35975Y32843
X35875Y32093
X33652Y32943
X33475Y32193
X32252Y31743
X28837Y31097
X27525Y30943
X25925Y29873
X26625Y29193
X26025Y28493
X25175Y29193
X24975Y28943
X27725Y29178
X28375Y28593
X31875Y28043
X32675Y27693
X33375Y27793
X33875Y27393
X34375Y27343
X34875Y27443
X35975Y27643
X37519Y27252
X37875Y27023
X38275Y27143
X39775Y27093
X40625Y27243
X39375Y26343
X38725Y25593
X38875Y25293
X39025Y24993
X39725Y25093
X40253Y24891
X40625Y24943
X40625Y25643
X38375Y26043
X37675Y26043
X37325Y26043
X37575Y24943
X37075Y24916
X36625Y24643
X35975Y24643
X35875Y23893
X33652Y24743
X33475Y23993
X32252Y23543
X33399Y26093
X33175Y26843
X43921Y26147
X45725Y25943
X45675Y25443
X45375Y25193
X45025Y25393
X44675Y24743
X46225Y24643
X46975Y23993
X47475Y23605
X47975Y23943
X47475Y24543
X48025Y25343
X48475Y25343
X48975Y24443
X50125Y24193
X50475Y23893
X51075Y24493
X51075Y24993
X50225Y24993
X50325Y25493
X50425Y26766
X50206Y27143
X49475Y26793
X48675Y27393
X48325Y26993
X47379Y27493
X47475Y28593
X46825Y29178
X45725Y29193
X45125Y28493
X44275Y29193
X44075Y28943
X44291Y27893
X44125Y27593
X44475Y27293
X45025Y26993
X45025Y29873
X46625Y30943
X47937Y31097
X47475Y31805
X47975Y32143
X47475Y32743
X46975Y32193
X46225Y32843
X45375Y33393
X45675Y33643
X45725Y34143
X45025Y33593
X43921Y34347
X44475Y35493
X44125Y35793
X44291Y36093
X45125Y36693
X45725Y37393
X45025Y38073
X44275Y37393
X44075Y37143
X46825Y37378
X47475Y36793
X47379Y35693
X48325Y35193
X48675Y35593
X49475Y34993
X50206Y35343
X50425Y34966
X52275Y35043
X52499Y34293
X53475Y35543
X52975Y35593
X52475Y35993
X51775Y35893
X50975Y36243
X53975Y35643
X55075Y35843
X56619Y35452
X56975Y35223
X57375Y35343
X58475Y34543
X58875Y35293
X59725Y35443
X57475Y34243
X57825Y33793
X57975Y33493
X58125Y33193
X58825Y33293
X59353Y33091
X59725Y33143
X59725Y33843
X63021Y34347
X64125Y33593
X64475Y33393
X64775Y33643
X64825Y34143
X64125Y35193
X63575Y35493
X63225Y35793
X63391Y36093
X64225Y36693
X64825Y37393
X64125Y38073
X63375Y37393
X63175Y37143
X65925Y37378
X66575Y36793
X66479Y35693
X67425Y35193
X67775Y35593
X69306Y35343
X69525Y34966
X68575Y34993
X69425Y33693
X69325Y33193
X70175Y33193
X70175Y32693
X69575Y32093
X69225Y32393
X68075Y32643
X67075Y32143
X66575Y31805
X66075Y32193
X66575Y32743
X65325Y32843
X63775Y32943
X67125Y33543
X67575Y33543
X71375Y35043
X71599Y34293
X72575Y35543
X72075Y35593
X71575Y35993
X70875Y35893
X70075Y36243
X73075Y35643
X74175Y35843
X75719Y35452
X76075Y35223
X76475Y35343
X77575Y34543
X77975Y35293
X78825Y35443
X76575Y34243
X76925Y33793
X77075Y33493
X77225Y33193
X77925Y33293
X78453Y33091
X78825Y33143
X78825Y33843
X75875Y34243
X75525Y34243
X75775Y33143
X75275Y33116
X74825Y32843
X74175Y32843
X74075Y32093
X71852Y32943
X71675Y32193
X70452Y31743
X67037Y31097
X65725Y30943
X64125Y29873
X64825Y29193
X64225Y28493
X63375Y29193
X63175Y28943
X63391Y27893
X63225Y27593
X63575Y27293
X64125Y26993
X64825Y25943
X64775Y25443
X64475Y25193
X64125Y25393
X63775Y24743
X65325Y24643
X66075Y23993
X66575Y23605
X67075Y23943
X66575Y24543
X67125Y25343
X67575Y25343
X68075Y24443
X69225Y24193
X69575Y23893
X70175Y24493
X70175Y24993
X69325Y24993
X69425Y25493
X71599Y26093
X71375Y26843
X72075Y27393
X72575Y27343
X73075Y27443
X74175Y27643
X75719Y27252
X76075Y27023
X76475Y27143
X76575Y26043
X76925Y25593
X77075Y25293
X77225Y24993
X77925Y25093
X78453Y24891
X78825Y24943
X78825Y25643
X77575Y26343
X75875Y26043
X75525Y26043
X75775Y24943
X75275Y24916
X74825Y24643
X74175Y24643
X74075Y23893
X71852Y24743
X71675Y23993
X70452Y23543
X67037Y22897
X65725Y22743
X64125Y21673
X64825Y20993
X65925Y20978
X66575Y20393
X64225Y20293
X63391Y19693
X63225Y19393
X63575Y19093
X64125Y18793
X63021Y17947
X64125Y17193
X64475Y16993
X64775Y17243
X64825Y17743
X65325Y16443
X66075Y15793
X66575Y15405
X67075Y15743
X68075Y16243
X69225Y15993
X69575Y15693
X70452Y15343
X71675Y15793
X71852Y16543
X74175Y16443
X74825Y16443
X75275Y16716
X75775Y16743
X77075Y17093
X77225Y16793
X76925Y17393
X76575Y17843
X75875Y17843
X75525Y17843
X77575Y18143
X78825Y17443
X77925Y16893
X78453Y16691
X78825Y16743
X74075Y15693
X70175Y16293
X70175Y16793
X69325Y16793
X69425Y17293
X71599Y17893
X71375Y18643
X72075Y19193
X72575Y19143
X73075Y19243
X74175Y19443
X75719Y19052
X76075Y18823
X76475Y18943
X77975Y18893
X78825Y19043
X71575Y19593
X70875Y19493
X70075Y19843
X69306Y18943
X69525Y18566
X68575Y18593
X67775Y19193
X67425Y18793
X66479Y19293
X63175Y20743
X63375Y20993
X55725Y24643
X56175Y24916
X56675Y24943
X57825Y25593
X57975Y25293
X58125Y24993
X58825Y25093
X59353Y24891
X59725Y24943
X59725Y25643
X58475Y26343
X57475Y26043
X56775Y26043
X56425Y26043
X56975Y27023
X57375Y27143
X56619Y27252
X55075Y27643
X53975Y27443
X53475Y27343
X52975Y27393
X52475Y27793
X51775Y27693
X50975Y28043
X52275Y26843
X52499Y26093
X52752Y24743
X52575Y23993
X51352Y23543
X47937Y22897
X46625Y22743
X54975Y23893
X55075Y24643
X58875Y27093
X59725Y27243
X63021Y26147
X66479Y27493
X67425Y26993
X67775Y27393
X68575Y26793
X69306Y27143
X69525Y26766
X70875Y27693
X71575Y27793
X70075Y28043
X66575Y28593
X65925Y29178
X56675Y33143
X56175Y33116
X55725Y32843
X55075Y32843
X54975Y32093
X52752Y32943
X52575Y32193
X51352Y31743
X50475Y32093
X50125Y32393
X51075Y32693
X51075Y33193
X50225Y33193
X50325Y33693
X48975Y32643
X48475Y33543
X48025Y33543
X44675Y32943
X45025Y35193
X56425Y34243
X56775Y34243
X77975Y27093
X78825Y27243
X67575Y17143
X67125Y17143
X66575Y16343
X63775Y16543
X65725Y14543
X67037Y14697
X65925Y12778
X66575Y12193
X64825Y12793
X64125Y13473
X63375Y12793
X63175Y12543
X64225Y12093
X63391Y11493
X63225Y11193
X63575Y10893
X64125Y10593
X63021Y9747
X64125Y8993
X64475Y8793
X64775Y9043
X64825Y9543
X65325Y8243
X66575Y8143
X67125Y8943
X67575Y8943
X69325Y8593
X69425Y9093
X70175Y8593
X70175Y8093
X69575Y7493
X69225Y7793
X68075Y8043
X67075Y7543
X66575Y7205
X66075Y7593
X65725Y6343
X67037Y6497
X70452Y7143
X71675Y7593
X71852Y8343
X74175Y8243
X74825Y8243
X75275Y8516
X75775Y8543
X77075Y8893
X77225Y8593
X77925Y8693
X78453Y8491
X78825Y8543
X78825Y9243
X77575Y9943
X76925Y9193
X76575Y9643
X75875Y9643
X75525Y9643
X76075Y10623
X76475Y10743
X75719Y10852
X74175Y11243
X73075Y11043
X72575Y10943
X72075Y10993
X71575Y11393
X70875Y11293
X70075Y11643
X69306Y10743
X69525Y10366
X68575Y10393
X67775Y10993
X67425Y10593
X66479Y11093
X71375Y10443
X71599Y9693
X74075Y7493
X77975Y10693
X78825Y10843
X63775Y8343
X47937Y6497
X46625Y6343
X16775Y15693
X14299Y17893
X14075Y18643
X14775Y19193
X15275Y19143
X15775Y19243
X16875Y19443
X14275Y19593
X13575Y19493
X12775Y19843
X12006Y18943
X12225Y18566
X11275Y18593
X10475Y19193
X10125Y18793
X9179Y19293
X6825Y18793
X6275Y19093
X5925Y19393
X6091Y19693
X6925Y20293
X5875Y20743
X6075Y20993
X6825Y21673
X7525Y20993
X8625Y20978
X9275Y20393
X8425Y22743
X9737Y22897
X5721Y17947
X6825Y17193
X7175Y16993
X7475Y17243
X7525Y17743
X8025Y16443
X6475Y16543
X10775Y16243
T02
X16475Y17643
X16475Y9443
X35575Y9443
X54675Y9443
X54675Y17643
X35575Y17643
X35575Y25843
X54675Y25843
X73775Y25843
X73775Y17643
X73775Y9443
X16475Y25843
X16475Y34043
X35575Y34043
X54675Y34043
X73775Y34043
T03
X73375Y33793
X73375Y33293
X72875Y33293
X72875Y33793
X72875Y34293
X73375Y34293
X73375Y34793
X72875Y34793
X72875Y35293
X73375Y35293
X73375Y27093
X73375Y26593
X73375Y26093
X73375Y25593
X73375Y25093
X72875Y25093
X72875Y25593
X72875Y26093
X72875Y26593
X72875Y27093
X54275Y27093
X54275Y26593
X54275Y26093
X54275Y25593
X54275Y25093
X53775Y25093
X53775Y25593
X53775Y26093
X53775Y26593
X53775Y27093
X53775Y33293
X54275Y33293
X54275Y33793
X53775Y33793
X53775Y34293
X54275Y34293
X54275Y34793
X53775Y34793
X53775Y35293
X54275Y35293
X35175Y35293
X35175Y34793
X35175Y34293
X35175Y33793
X35175Y33293
X34675Y33293
X34675Y33793
X34675Y34293
X34675Y34793
X34675Y35293
X16075Y35293
X16075Y34793
X16075Y34293
X16075Y33793
X16075Y33293
X15575Y33293
X15575Y33793
X15575Y34293
X15575Y34793
X15575Y35293
X15575Y27093
X15575Y26593
X15575Y26093
X15575Y25593
X15575Y25093
X16075Y25093
X16075Y25593
X16075Y26093
X16075Y26593
X16075Y27093
X34675Y27093
X34675Y26593
X34675Y26093
X34675Y25593
X34675Y25093
X35175Y25093
X35175Y25593
X35175Y26093
X35175Y26593
X35175Y27093
X35175Y18893
X35175Y18393
X35175Y17893
X35175Y17393
X35175Y16893
X34675Y16893
X34675Y17393
X34675Y17893
X34675Y18393
X34675Y18893
X16075Y18893
X16075Y18393
X16075Y17893
X16075Y17393
X16075Y16893
X15575Y16893
X15575Y17393
X15575Y17893
X15575Y18393
X15575Y18893
X15575Y10693
X15575Y10193
X15575Y9693
X15575Y9193
X15575Y8693
X16075Y8693
X16075Y9193
X16075Y9693
X16075Y10193
X16075Y10693
X34675Y10693
X34675Y10193
X34675Y9693
X34675Y9193
X34675Y8693
X35175Y8693
X35175Y9193
X35175Y9693
X35175Y10193
X35175Y10693
X53775Y10693
X53775Y10193
X53775Y9693
X53775Y9193
X53775Y8693
X54275Y8693
X54275Y9193
X54275Y9693
X54275Y10193
X54275Y10693
X54275Y16893
X53775Y16893
X53775Y17393
X54275Y17393
X54275Y17893
X53775Y17893
X53775Y18393
X54275Y18393
X54275Y18893
X53775Y18893
X72875Y18893
X72875Y18393
X72875Y17893
X72875Y17393
X72875Y16893
X73375Y16893
X73375Y17393
X73375Y17893
X73375Y18393
X73375Y18893
X73375Y10693
X73375Y10193
X73375Y9693
X73375Y9193
X73375Y8693
X72875Y8693
X72875Y9193
X72875Y9693
X72875Y10193
X72875Y10693
T04
X64006Y10056
X64006Y12331
X64006Y18256
X64006Y20531
X64006Y26456
X64006Y28731
X64006Y34656
X64006Y36931
X44906Y36931
X44906Y34656
X44906Y28731
X44906Y26456
X44906Y20531
X44906Y18256
X44906Y12331
X44906Y10056
X25806Y10056
X25806Y12331
X25806Y18256
X25806Y20531
X25806Y26456
X25806Y28731
X25806Y34656
X25806Y36931
X6706Y36931
X6706Y34656
X6706Y28731
X6706Y26456
X6706Y20531
X6706Y18256
X6706Y12331
X6706Y10056
T05
X9275Y6300
X9275Y14500
X9275Y22700
X9275Y30900
X28375Y30900
X28375Y22700
X28375Y14500
X28375Y6300
X47475Y6300
X66575Y6300
X66575Y14500
X47475Y14500
X47475Y22700
X66575Y22700
X66575Y30900
X47475Y30900
T06
X48475Y30793
X49475Y30793
X49475Y31793
X48475Y31793
X48475Y29593
X49475Y29593
X50475Y29593
X51475Y29593
X52475Y29593
X53475Y29593
X54475Y29593
X55475Y29593
X56475Y29593
X57475Y29593
X58475Y29593
X59475Y29593
X59475Y28593
X58475Y28593
X57475Y28593
X56475Y28593
X55475Y28593
X54475Y28593
X53475Y28593
X52475Y28593
X51475Y28593
X50475Y28593
X49475Y28593
X48475Y28593
X47475Y26593
X47475Y25593
X48475Y23593
X49475Y23593
X49475Y22593
X48475Y22593
X48475Y21393
X49475Y21393
X50475Y21393
X51475Y21393
X52475Y21393
X53475Y21393
X54475Y21393
X55475Y21393
X56475Y21393
X57475Y21393
X58475Y21393
X59475Y21393
X59475Y20393
X58475Y20393
X57475Y20393
X56475Y20393
X55475Y20393
X54475Y20393
X53475Y20393
X52475Y20393
X51475Y20393
X50475Y20393
X49475Y20393
X48475Y20393
X47475Y18393
X47475Y17393
X48475Y15393
X49475Y15393
X49475Y14393
X48475Y14393
X48475Y13193
X48475Y12193
X49475Y12193
X50475Y12193
X51475Y12193
X52475Y12193
X53475Y12193
X54475Y12193
X55475Y12193
X56475Y12193
X57475Y12193
X58475Y12193
X59475Y12193
X59475Y13193
X58475Y13193
X57475Y13193
X56475Y13193
X55475Y13193
X54475Y13193
X53475Y13193
X52475Y13193
X51475Y13193
X50475Y13193
X49475Y13193
X53475Y14393
X54475Y14393
X55475Y14393
X56475Y14393
X57475Y14393
X58475Y14393
X59475Y14393
X59475Y15393
X58475Y15393
X57475Y15393
X56475Y15393
X55475Y15393
X54475Y15393
X53475Y15393
X62575Y15143
X62575Y16143
X66575Y17393
X66575Y18393
X67575Y20393
X68575Y20393
X69575Y20393
X70575Y20393
X71575Y20393
X72575Y20393
X73575Y20393
X74575Y20393
X75575Y20393
X76575Y20393
X77575Y20393
X78575Y20393
X78575Y21393
X77575Y21393
X76575Y21393
X75575Y21393
X74575Y21393
X73575Y21393
X72575Y21393
X71575Y21393
X70575Y21393
X69575Y21393
X68575Y21393
X67575Y21393
X67575Y22593
X68575Y22593
X68575Y23593
X67575Y23593
X66575Y25593
X66575Y26593
X67575Y28593
X68575Y28593
X69575Y28593
X70575Y28593
X71575Y28593
X72575Y28593
X73575Y28593
X74575Y28593
X75575Y28593
X76575Y28593
X77575Y28593
X78575Y28593
X78575Y29593
X77575Y29593
X76575Y29593
X75575Y29593
X74575Y29593
X73575Y29593
X72575Y29593
X71575Y29593
X70575Y29593
X69575Y29593
X68575Y29593
X67575Y29593
X67575Y30793
X68575Y30793
X68575Y31793
X67575Y31793
X66575Y33793
X66575Y34793
X67575Y36793
X68575Y36793
X69575Y36793
X70575Y36793
X71575Y36793
X72575Y36793
X73575Y36793
X74575Y36793
X75575Y36793
X76575Y36793
X77575Y36793
X78575Y36793
X78575Y37793
X77575Y37793
X76575Y37793
X75575Y37793
X74575Y37793
X73575Y37793
X72575Y37793
X71575Y37793
X70575Y37793
X69575Y37793
X68575Y37793
X67575Y37793
X59475Y37793
X58475Y37793
X57475Y37793
X56475Y37793
X55475Y37793
X54475Y37793
X53475Y37793
X52475Y37793
X51475Y37793
X50475Y37793
X49475Y37793
X48475Y37793
X48475Y36793
X49475Y36793
X50475Y36793
X51475Y36793
X52475Y36793
X53475Y36793
X54475Y36793
X55475Y36793
X56475Y36793
X57475Y36793
X58475Y36793
X59475Y36793
X62575Y32543
X62575Y31543
X59475Y31793
X58475Y31793
X57475Y31793
X56475Y31793
X55475Y31793
X54475Y31793
X53475Y31793
X53475Y30793
X54475Y30793
X55475Y30793
X56475Y30793
X57475Y30793
X58475Y30793
X59475Y30793
X47475Y33793
X47475Y34793
X43475Y32543
X43475Y31543
X40375Y31793
X39375Y31793
X38375Y31793
X37375Y31793
X36375Y31793
X35375Y31793
X34375Y31793
X34375Y30793
X35375Y30793
X36375Y30793
X37375Y30793
X38375Y30793
X39375Y30793
X40375Y30793
X40375Y29593
X39375Y29593
X38375Y29593
X37375Y29593
X36375Y29593
X35375Y29593
X34375Y29593
X33375Y29593
X32375Y29593
X31375Y29593
X30375Y29593
X29375Y29593
X29375Y28593
X30375Y28593
X31375Y28593
X32375Y28593
X33375Y28593
X34375Y28593
X35375Y28593
X36375Y28593
X37375Y28593
X38375Y28593
X39375Y28593
X40375Y28593
X43475Y24343
X43475Y23343
X40375Y23593
X39375Y23593
X38375Y23593
X37375Y23593
X36375Y23593
X35375Y23593
X34375Y23593
X34375Y22593
X35375Y22593
X36375Y22593
X37375Y22593
X38375Y22593
X39375Y22593
X40375Y22593
X40375Y21393
X39375Y21393
X38375Y21393
X37375Y21393
X36375Y21393
X35375Y21393
X34375Y21393
X33375Y21393
X32375Y21393
X31375Y21393
X30375Y21393
X29375Y21393
X29375Y20393
X30375Y20393
X31375Y20393
X32375Y20393
X33375Y20393
X34375Y20393
X35375Y20393
X36375Y20393
X37375Y20393
X38375Y20393
X39375Y20393
X40375Y20393
X43475Y16143
X43475Y15143
X40375Y15393
X39375Y15393
X38375Y15393
X37375Y15393
X36375Y15393
X35375Y15393
X34375Y15393
X34375Y14393
X35375Y14393
X36375Y14393
X37375Y14393
X38375Y14393
X39375Y14393
X40375Y14393
X40375Y13193
X40375Y12193
X39375Y12193
X38375Y12193
X37375Y12193
X36375Y12193
X35375Y12193
X34375Y12193
X33375Y12193
X32375Y12193
X31375Y12193
X30375Y12193
X29375Y12193
X29375Y13193
X30375Y13193
X31375Y13193
X32375Y13193
X33375Y13193
X34375Y13193
X35375Y13193
X36375Y13193
X37375Y13193
X38375Y13193
X39375Y13193
X47475Y10193
X47475Y9193
X48475Y7193
X49475Y7193
X49475Y6193
X48475Y6193
X53475Y6193
X54475Y6193
X55475Y6193
X56475Y6193
X57475Y6193
X58475Y6193
X59475Y6193
X59475Y7193
X58475Y7193
X57475Y7193
X56475Y7193
X55475Y7193
X54475Y7193
X53475Y7193
X62575Y6943
X62575Y7943
X66575Y9193
X66575Y10193
X67575Y12193
X68575Y12193
X69575Y12193
X70575Y12193
X71575Y12193
X72575Y12193
X73575Y12193
X74575Y12193
X75575Y12193
X76575Y12193
X77575Y12193
X78575Y12193
X78575Y13193
X77575Y13193
X76575Y13193
X75575Y13193
X74575Y13193
X73575Y13193
X72575Y13193
X71575Y13193
X70575Y13193
X69575Y13193
X68575Y13193
X67575Y13193
X67575Y14393
X68575Y14393
X68575Y15393
X67575Y15393
X72575Y15393
X73575Y15393
X74575Y15393
X75575Y15393
X76575Y15393
X77575Y15393
X78575Y15393
X78575Y14393
X77575Y14393
X76575Y14393
X75575Y14393
X74575Y14393
X73575Y14393
X72575Y14393
X72575Y7193
X73575Y7193
X74575Y7193
X75575Y7193
X76575Y7193
X77575Y7193
X78575Y7193
X78575Y6193
X77575Y6193
X76575Y6193
X75575Y6193
X74575Y6193
X73575Y6193
X72575Y6193
X68575Y6193
X67575Y6193
X67575Y7193
X68575Y7193
X43475Y6943
X43475Y7943
X40375Y7193
X39375Y7193
X38375Y7193
X37375Y7193
X36375Y7193
X35375Y7193
X34375Y7193
X34375Y6193
X35375Y6193
X36375Y6193
X37375Y6193
X38375Y6193
X39375Y6193
X40375Y6193
X30375Y6193
X29375Y6193
X29375Y7193
X30375Y7193
X28375Y9193
X28375Y10193
X24375Y7943
X24375Y6943
X21275Y7193
X20275Y7193
X19275Y7193
X18275Y7193
X17275Y7193
X16275Y7193
X15275Y7193
X15275Y6193
X16275Y6193
X17275Y6193
X18275Y6193
X19275Y6193
X20275Y6193
X21275Y6193
X11275Y6193
X10275Y6193
X10275Y7193
X11275Y7193
X9275Y9193
X9275Y10193
X10275Y12193
X11275Y12193
X12275Y12193
X13275Y12193
X14275Y12193
X15275Y12193
X16275Y12193
X17275Y12193
X18275Y12193
X19275Y12193
X20275Y12193
X21275Y12193
X21275Y13193
X20275Y13193
X19275Y13193
X18275Y13193
X17275Y13193
X16275Y13193
X15275Y13193
X14275Y13193
X13275Y13193
X12275Y13193
X11275Y13193
X10275Y13193
X10275Y14393
X11275Y14393
X11275Y15393
X10275Y15393
X9275Y17393
X9275Y18393
X10275Y20393
X11275Y20393
X12275Y20393
X13275Y20393
X14275Y20393
X15275Y20393
X16275Y20393
X17275Y20393
X18275Y20393
X19275Y20393
X20275Y20393
X21275Y20393
X21275Y21393
X20275Y21393
X19275Y21393
X18275Y21393
X17275Y21393
X16275Y21393
X15275Y21393
X14275Y21393
X13275Y21393
X12275Y21393
X11275Y21393
X10275Y21393
X10275Y22593
X11275Y22593
X11275Y23593
X10275Y23593
X9275Y25593
X9275Y26593
X10275Y28593
X11275Y28593
X12275Y28593
X13275Y28593
X14275Y28593
X15275Y28593
X16275Y28593
X17275Y28593
X18275Y28593
X19275Y28593
X20275Y28593
X21275Y28593
X21275Y29593
X20275Y29593
X19275Y29593
X18275Y29593
X17275Y29593
X16275Y29593
X15275Y29593
X14275Y29593
X13275Y29593
X12275Y29593
X11275Y29593
X10275Y29593
X10275Y30793
X11275Y30793
X11275Y31793
X10275Y31793
X9275Y33793
X9275Y34793
X10275Y36793
X11275Y36793
X12275Y36793
X13275Y36793
X14275Y36793
X15275Y36793
X16275Y36793
X17275Y36793
X18275Y36793
X19275Y36793
X20275Y36793
X21275Y36793
X21275Y37793
X20275Y37793
X19275Y37793
X18275Y37793
X17275Y37793
X16275Y37793
X15275Y37793
X14275Y37793
X13275Y37793
X12275Y37793
X11275Y37793
X10275Y37793
X5275Y32543
X5275Y31543
X15275Y31793
X16275Y31793
X17275Y31793
X18275Y31793
X19275Y31793
X20275Y31793
X21275Y31793
X21275Y30793
X20275Y30793
X19275Y30793
X18275Y30793
X17275Y30793
X16275Y30793
X15275Y30793
X24375Y31543
X24375Y32543
X28375Y33793
X28375Y34793
X29375Y36793
X30375Y36793
X31375Y36793
X32375Y36793
X33375Y36793
X34375Y36793
X35375Y36793
X36375Y36793
X37375Y36793
X38375Y36793
X39375Y36793
X40375Y36793
X40375Y37793
X39375Y37793
X38375Y37793
X37375Y37793
X36375Y37793
X35375Y37793
X34375Y37793
X33375Y37793
X32375Y37793
X31375Y37793
X30375Y37793
X29375Y37793
X29375Y31793
X30375Y31793
X30375Y30793
X29375Y30793
X28375Y26593
X28375Y25593
X24375Y24343
X24375Y23343
X21275Y23593
X20275Y23593
X19275Y23593
X18275Y23593
X17275Y23593
X16275Y23593
X15275Y23593
X15275Y22593
X16275Y22593
X17275Y22593
X18275Y22593
X19275Y22593
X20275Y22593
X21275Y22593
X29375Y22593
X30375Y22593
X30375Y23593
X29375Y23593
X28375Y18393
X28375Y17393
X24375Y16143
X24375Y15143
X21275Y15393
X20275Y15393
X19275Y15393
X18275Y15393
X17275Y15393
X16275Y15393
X15275Y15393
X15275Y14393
X16275Y14393
X17275Y14393
X18275Y14393
X19275Y14393
X20275Y14393
X21275Y14393
X29375Y14393
X30375Y14393
X30375Y15393
X29375Y15393
X53475Y22593
X54475Y22593
X55475Y22593
X56475Y22593
X57475Y22593
X58475Y22593
X59475Y22593
X59475Y23593
X58475Y23593
X57475Y23593
X56475Y23593
X55475Y23593
X54475Y23593
X53475Y23593
X62575Y23343
X62575Y24343
X72575Y23593
X73575Y23593
X74575Y23593
X75575Y23593
X76575Y23593
X77575Y23593
X78575Y23593
X78575Y22593
X77575Y22593
X76575Y22593
X75575Y22593
X74575Y22593
X73575Y22593
X72575Y22593
X72575Y30793
X73575Y30793
X74575Y30793
X75575Y30793
X76575Y30793
X77575Y30793
X78575Y30793
X78575Y31793
X77575Y31793
X76575Y31793
X75575Y31793
X74575Y31793
X73575Y31793
X72575Y31793
X5275Y24343
X5275Y23343
X5275Y16143
X5275Y15143
X5275Y7943
X5275Y6943
M30
